<svg xmlns="http://www.w3.org/2000/svg" style="display: none;">
    <symbol id="ri-user-line" viewBox="0 0 24 24">
        <path fill="none" d="M0 0h24v24H0z" />
        <path d="M4 22C4 17.5817 7.58172 14 12 14C16.4183 14 20 17.5817 20 22H18C18 18.6863 15.3137 16 12 16C8.68629 16 6 18.6863 6 22H4ZM12 13C8.685 13 6 10.315 6 7C6 3.685 8.685 1 12 1C15.315 1 18 3.685 18 7C18 10.315 15.315 13 12 13ZM12 11C14.21 11 16 9.21 16 7C16 4.79 14.21 3 12 3C9.79 3 8 4.79 8 7C8 9.21 9.79 11 12 11Z" />
    </symbol>

    <symbol id="ri-emotion-normal-line" viewBox="0 0 24 24">
        <path fill="none" d="M0 0h24v24H0z" />
        <path fill="currentColor" d="M12 22C6.47715 22 2 17.5228 2 12C2 6.47715 6.47715 2 12 2C17.5228 2 22 6.47715 22 12C22 17.5228 17.5228 22 12 22ZM12 20C16.4183 20 20 16.4183 20 12C20 7.58172 16.4183 4 12 4C7.58172 4 4 7.58172 4 12C4 16.4183 7.58172 20 12 20ZM8 14H16V16H8V14ZM8 11C7.17157 11 6.5 10.3284 6.5 9.5C6.5 8.67157 7.17157 8 8 8C8.82843 8 9.5 8.67157 9.5 9.5C9.5 10.3284 8.82843 11 8 11ZM16 11C15.1716 11 14.5 10.3284 14.5 9.5C14.5 8.67157 15.1716 8 16 8C16.8284 8 17.5 8.67157 17.5 9.5C17.5 10.3284 16.8284 11 16 11Z" />
    </symbol>

    <symbol id="ri-logout-box-r-line" viewBox="0 0 24 24">
        <path fill="none" d="M0 0h24v24H0z" />
        <path d="M5 22C4.44772 22 4 21.5523 4 21V3C4 2.44772 4.44772 2 5 2H19C19.5523 2 20 2.44772 20 3V6H18V4H6V20H18V18H20V21C20 21.5523 19.5523 22 19 22H5ZM18 16V13H11V11H18V8L23 12L18 16Z" />
    </symbol>

    <symbol id="ri-search-line" viewBox="0 0 24 24">
        <path fill="none" d="M0 0h24v24H0z" />
        <path d="M18.031 16.6168L22.3137 20.8995L20.8995 22.3137L16.6168 18.031C15.0769 19.263 13.124 20 11 20C6.032 20 2 15.968 2 11C2 6.032 6.032 2 11 2C15.968 2 20 6.032 20 11C20 13.124 19.263 15.0769 18.031 16.6168ZM16.0247 15.8748C17.2475 14.6146 18 12.8956 18 11C18 7.1325 14.8675 4 11 4C7.1325 4 4 7.1325 4 11C4 14.8675 7.1325 18 11 18C12.8956 18 14.6146 17.2475 15.8748 16.0247L16.0247 15.8748Z" />
    </symbol>

    <symbol id="ri-arrow-down-s-line" viewBox="0 0 24 24">
        <path fill="none" d="M0 0h24v24H0z" />
        <path d="M11.9999 13.1714L16.9497 8.22168L18.3639 9.63589L11.9999 15.9999L5.63599 9.63589L7.0502 8.22168L11.9999 13.1714Z" />
    </symbol>

    <symbol id="ri-star-fill" viewBox="0 0 24 24">
        <path fill="none" d="M0 0h24v24H0z" />
        <path d="M12.0006 18.26L4.94715 22.2082L6.52248 14.2799L0.587891 8.7918L8.61493 7.84006L12.0006 0.5L15.3862 7.84006L23.4132 8.7918L17.4787 14.2799L19.054 22.2082L12.0006 18.26Z" />
    </symbol>

    <symbol id="ri-thumb-up-fill" viewBox="0 0 24 24">
        <path fill="none" d="M0 0h24v24H0z" />
        <path d="M2 8.99997H5V21H2C1.44772 21 1 20.5523 1 20V9.99997C1 9.44769 1.44772 8.99997 2 8.99997ZM7.29289 7.70708L13.6934 1.30661C13.8693 1.13066 14.1479 1.11087 14.3469 1.26016L15.1995 1.8996C15.6842 2.26312 15.9026 2.88253 15.7531 3.46966L14.5998 7.99997H21C22.1046 7.99997 23 8.8954 23 9.99997V12.1043C23 12.3656 22.9488 12.6243 22.8494 12.8658L19.755 20.3807C19.6007 20.7554 19.2355 21 18.8303 21H8C7.44772 21 7 20.5523 7 20V8.41419C7 8.14897 7.10536 7.89462 7.29289 7.70708Z" />
    </symbol>

    <symbol id="ri-thumb-up-line" viewBox="0 0 24 24">
        <path fill="none" d="M0 0h24v24H0z" />
        <path d="M14.5998 8.00033H21C22.1046 8.00033 23 8.89576 23 10.0003V12.1047C23 12.3659 22.9488 12.6246 22.8494 12.8662L19.755 20.3811C19.6007 20.7558 19.2355 21.0003 18.8303 21.0003H2C1.44772 21.0003 1 20.5526 1 20.0003V10.0003C1 9.44804 1.44772 9.00033 2 9.00033H5.48184C5.80677 9.00033 6.11143 8.84246 6.29881 8.57701L11.7522 0.851355C11.8947 0.649486 12.1633 0.581978 12.3843 0.692483L14.1984 1.59951C15.25 2.12534 15.7931 3.31292 15.5031 4.45235L14.5998 8.00033ZM7 10.5878V19.0003H18.1606L21 12.1047V10.0003H14.5998C13.2951 10.0003 12.3398 8.77128 12.6616 7.50691L13.5649 3.95894C13.6229 3.73105 13.5143 3.49353 13.3039 3.38837L12.6428 3.0578L7.93275 9.73038C7.68285 10.0844 7.36341 10.3746 7 10.5878ZM5 11.0003H3V19.0003H5V11.0003Z" />
    </symbol>

    <symbol id="ri-thumb-down-line" viewBox="0 0 24 24">
        <path fill="none" d="M0 0h24v24H0z" />
        <path d="M9.40017 16H3C1.89543 16 1 15.1046 1 14V11.8957C1 11.6344 1.05118 11.3757 1.15064 11.1342L4.24501 3.61925C4.3993 3.24455 4.76447 3 5.16969 3H22C22.5523 3 23 3.44772 23 4V14C23 14.5523 22.5523 15 22 15H18.5182C18.1932 15 17.8886 15.1579 17.7012 15.4233L12.2478 23.149C12.1053 23.3508 11.8367 23.4184 11.6157 23.3078L9.80163 22.4008C8.74998 21.875 8.20687 20.6874 8.49694 19.548L9.40017 16ZM17 13.4125V5H5.83939L3 11.8957V14H9.40017C10.7049 14 11.6602 15.229 11.3384 16.4934L10.4351 20.0414C10.3771 20.2693 10.4857 20.5068 10.6961 20.612L11.3572 20.9425L16.0673 14.27C16.3172 13.9159 16.6366 13.6257 17 13.4125ZM19 13H21V5H19V13Z" />
    </symbol>

    <symbol id="ri-chat-1-line" viewBox="0 0 24 24">
        <path fill="none" d="M0 0h24v24H0z" />
        <path d="M10 3H14C18.4183 3 22 6.58172 22 11C22 15.4183 18.4183 19 14 19V22.5C9 20.5 2 17.5 2 11C2 6.58172 5.58172 3 10 3ZM12 17H14C17.3137 17 20 14.3137 20 11C20 7.68629 17.3137 5 14 5H10C6.68629 5 4 7.68629 4 11C4 14.61 6.46208 16.9656 12 19.4798V17Z" />
    </symbol>

    <symbol id="ri-flag-line" viewBox="0 0 24 24">
        <path fill="none" d="M0 0h24v24H0z" />
        <path d="M12.382 3C12.7607 3 13.107 3.214 13.2764 3.55279L14 5H20C20.5523 5 21 5.44772 21 6V17C21 17.5523 20.5523 18 20 18H13.618C13.2393 18 12.893 17.786 12.7236 17.4472L12 16H5V22H3V3H12.382ZM11.7639 5H5V14H13.2361L14.2361 16H19V7H12.7639L11.7639 5Z" />
    </symbol>

    <symbol id="ri-close-line" viewBox="0 0 24 24">
        <path fill="none" d="M0 0h24v24H0z" />
        <path d="M11.9997 10.5865L16.9495 5.63672L18.3637 7.05093L13.4139 12.0007L18.3637 16.9504L16.9495 18.3646L11.9997 13.4149L7.04996 18.3646L5.63574 16.9504L10.5855 12.0007L5.63574 7.05093L7.04996 5.63672L11.9997 10.5865Z" />
    </symbol>

    <symbol id="ri-upload-2-line" viewBox="0 0 24 24">
        <path fill="none" d="M0 0h24v24H0z" />
        <path d="M4 19H20V12H22V20C22 20.5523 21.5523 21 21 21H3C2.44772 21 2 20.5523 2 20V12H4V19ZM13 9V16H11V9H6L12 3L18 9H13Z" />
    </symbol>

    <symbol id="ri-arrow-left-s-line" viewBox="0 0 24 24">
        <path fill="none" d="M0 0h24v24H0z" />
        <path d="M10.8284 12.0007L15.7782 16.9504L14.364 18.3646L8 12.0007L14.364 5.63672L15.7782 7.05093L10.8284 12.0007Z" />
    </symbol>

    <symbol id="ri-arrow-right-s-line" viewBox="0 0 24 24">
        <path fill="none" d="M0 0h24v24H0z" />
        <path d="M13.1717 12.0007L8.22192 7.05093L9.63614 5.63672L16.0001 12.0007L9.63614 18.3646L8.22192 16.9504L13.1717 12.0007Z" />
    </symbol>

    <symbol id="ri-drizzle-line" viewBox="0 0 24 24">
        <path fill="none" d="M0 0h24v24H0z" />
        <path d="M17 18V16H17.5C19.433 16 21 14.433 21 12.5C21 10.567 19.433 9 17.5 9C16.5205 9 15.6351 9.40232 14.9998 10.0507C14.9999 10.0338 15 10.0169 15 10C15 6.68629 12.3137 4 9 4C5.68629 4 3 6.68629 3 10C3 12.6124 4.66962 14.8349 7 15.6586V17.748C3.54955 16.8599 1 13.7277 1 10C1 5.58172 4.58172 2 9 2C12.3949 2 15.2959 4.11466 16.4576 7.09864C16.7951 7.0339 17.1436 7 17.5 7C20.5376 7 23 9.46243 23 12.5C23 15.5376 20.5376 18 17.5 18H17ZM9 16H11V20H9V16ZM13 19H15V23H13V19Z" />
    </symbol>

    <symbol id="ri-gift-line" viewBox="0 0 24 24">
        <path fill="none" d="M0 0h24v24H0z" />
        <path d="M15.0049 2.00281C17.214 2.00281 19.0049 3.79367 19.0049 6.00281C19.0049 6.73184 18.8098 7.41532 18.4691 8.00392L23.0049 8.00281V10.0028H21.0049V20.0028C21.0049 20.5551 20.5572 21.0028 20.0049 21.0028H4.00488C3.4526 21.0028 3.00488 20.5551 3.00488 20.0028V10.0028H1.00488V8.00281L5.54065 8.00392C5.19992 7.41532 5.00488 6.73184 5.00488 6.00281C5.00488 3.79367 6.79574 2.00281 9.00488 2.00281C10.2001 2.00281 11.2729 2.52702 12.0058 3.35807C12.7369 2.52702 13.8097 2.00281 15.0049 2.00281ZM11.0049 10.0028H5.00488V19.0028H11.0049V10.0028ZM19.0049 10.0028H13.0049V19.0028H19.0049V10.0028ZM9.00488 4.00281C7.90031 4.00281 7.00488 4.89824 7.00488 6.00281C7.00488 7.05717 7.82076 7.92097 8.85562 7.99732L9.00488 8.00281H11.0049V6.00281C11.0049 5.00116 10.2686 4.1715 9.30766 4.02558L9.15415 4.00829L9.00488 4.00281ZM15.0049 4.00281C13.9505 4.00281 13.0867 4.81869 13.0104 5.85355L13.0049 6.00281V8.00281H15.0049C16.0592 8.00281 16.923 7.18693 16.9994 6.15207L17.0049 6.00281C17.0049 4.89824 16.1095 4.00281 15.0049 4.00281Z" />
    </symbol>

    <symbol id="ri-heart-line" viewBox="0 0 24 24">
        <path fill="none" d="M0 0h24v24H0z" />
        <path d="M12.001 4.52853C14.35 2.42 17.98 2.49 20.2426 4.75736C22.5053 7.02472 22.583 10.637 20.4786 12.993L11.9999 21.485L3.52138 12.993C1.41705 10.637 1.49571 7.01901 3.75736 4.75736C6.02157 2.49315 9.64519 2.41687 12.001 4.52853ZM18.827 6.1701C17.3279 4.66794 14.9076 4.60701 13.337 6.01687L12.0019 7.21524L10.6661 6.01781C9.09098 4.60597 6.67506 4.66808 5.17157 6.17157C3.68183 7.66131 3.60704 10.0473 4.97993 11.6232L11.9999 18.6543L19.0201 11.6232C20.3935 10.0467 20.319 7.66525 18.827 6.1701Z" />
    </symbol>

    <symbol id="ri-sun-line" viewBox="0 0 24 24">
        <path fill="none" d="M0 0h24v24H0z" />
        <path d="M12 18C8.68629 18 6 15.3137 6 12C6 8.68629 8.68629 6 12 6C15.3137 6 18 8.68629 18 12C18 15.3137 15.3137 18 12 18ZM12 16C14.2091 16 16 14.2091 16 12C16 9.79086 14.2091 8 12 8C9.79086 8 8 9.79086 8 12C8 14.2091 9.79086 16 12 16ZM11 1H13V4H11V1ZM11 20H13V23H11V20ZM3.51472 4.92893L4.92893 3.51472L7.05025 5.63604L5.63604 7.05025L3.51472 4.92893ZM16.9497 18.364L18.364 16.9497L20.4853 19.0711L19.0711 20.4853L16.9497 18.364ZM19.0711 3.51472L20.4853 4.92893L18.364 7.05025L16.9497 5.63604L19.0711 3.51472ZM5.63604 16.9497L7.05025 18.364L4.92893 20.4853L3.51472 19.0711L5.63604 16.9497ZM23 11V13H20V11H23ZM4 11V13H1V11H4Z" />
    </symbol>

    <symbol id="ri-medal-line" viewBox="0 0 24 24">
        <path fill="none" d="M0 0h24v24H0z" />
        <path d="M12 6.99999C16.4183 6.99999 20 10.5817 20 15C20 19.4183 16.4183 23 12 23C7.58172 23 4 19.4183 4 15C4 10.5817 7.58172 6.99999 12 6.99999ZM12 8.99999C8.68629 8.99999 6 11.6863 6 15C6 18.3137 8.68629 21 12 21C15.3137 21 18 18.3137 18 15C18 11.6863 15.3137 8.99999 12 8.99999ZM12 10.5L13.3225 13.1797L16.2798 13.6094L14.1399 15.6953L14.645 18.6406L12 17.25L9.35497 18.6406L9.86012 15.6953L7.72025 13.6094L10.6775 13.1797L12 10.5ZM18 1.99999V4.99999L16.6366 6.13755C15.5305 5.5577 14.3025 5.17884 13.0011 5.04948L13 1.99899L18 1.99999ZM11 1.99899L10.9997 5.04939C9.6984 5.17863 8.47046 5.55735 7.36441 6.13703L6 4.99999V1.99999L11 1.99899Z" />
    </symbol>

    <symbol id="ri-lightbulb-line" viewBox="0 0 24 24">
        <path fill="none" d="M0 0h24v24H0z" />
        <path d="M9.97308 18H11V13H13V18H14.0269C14.1589 16.7984 14.7721 15.8065 15.7676 14.7226C15.8797 14.6006 16.5988 13.8564 16.6841 13.7501C17.5318 12.6931 18 11.385 18 10C18 6.68629 15.3137 4 12 4C8.68629 4 6 6.68629 6 10C6 11.3843 6.46774 12.6917 7.31462 13.7484C7.40004 13.855 8.12081 14.6012 8.23154 14.7218C9.22766 15.8064 9.84103 16.7984 9.97308 18ZM10 20V21H14V20H10ZM5.75395 14.9992C4.65645 13.6297 4 11.8915 4 10C4 5.58172 7.58172 2 12 2C16.4183 2 20 5.58172 20 10C20 11.8925 19.3428 13.6315 18.2443 15.0014C17.624 15.7748 16 17 16 18.5V21C16 22.1046 15.1046 23 14 23H10C8.89543 23 8 22.1046 8 21V18.5C8 17 6.37458 15.7736 5.75395 14.9992Z" />
    </symbol>

    <!-- Boxicons -->
    <symbol id="bxs-star" viewBox="0 0 24 24">
        <path d="M21.947 9.179a1.001 1.001 0 0 0-.868-.676l-5.701-.453-2.467-5.461a.998.998 0 0 0-1.822-.001L8.622 8.05l-5.701.453a1 1 0 0 0-.619 1.713l4.213 4.107-1.49 6.452a1 1 0 0 0 1.53 1.057L12 18.202l5.445 3.63a1.001 1.001 0 0 0 1.517-1.106l-1.829-6.4 4.536-4.082c.297-.268.406-.686.278-1.065z" />
    </symbol>

    <symbol id="bxs-star-half" viewBox="0 0 24 24">
        <path d="M5.025 20.775A.998.998 0 0 0 6 22a1 1 0 0 0 .555-.168L12 18.202l5.445 3.63a1.001 1.001 0 0 0 1.517-1.106l-1.829-6.4 4.536-4.082a1 1 0 0 0-.59-1.74l-5.701-.454-2.467-5.461a.998.998 0 0 0-1.822-.001L8.622 8.05l-5.701.453a1 1 0 0 0-.619 1.713l4.214 4.107-1.491 6.452zM12 5.429l2.042 4.521.588.047h.001l3.972.315-3.271 2.944-.001.002-.463.416.171.597v.003l1.253 4.385L12 15.798V5.429z" />
    </symbol>

    <symbol id="bx-happy" viewBox="0 0 24 24">
        <path d="M12 2C6.486 2 2 6.486 2 12s4.486 10 10 10 10-4.486 10-10S17.514 2 12 2zm0 18c-4.411 0-8-3.589-8-8s3.589-8 8-8 8 3.589 8 8-3.589 8-8 8z" />
        <circle cx="8.5" cy="10.5" r="1.5" />
        <circle cx="15.493" cy="10.493" r="1.493" />
        <path d="M12 18c4 0 5-4 5-4H7s1 4 5 4z" />
    </symbol>

    <symbol id="bx-meh" viewBox="0 0 24 24">
        <path d="M12 2C6.486 2 2 6.486 2 12s4.486 10 10 10 10-4.486 10-10S17.514 2 12 2zm0 18c-4.411 0-8-3.589-8-8s3.589-8 8-8 8 3.589 8 8-3.589 8-8 8z" />
        <circle cx="8.5" cy="10.5" r="1.5" />
        <circle cx="15.493" cy="10.493" r="1.493" />
        <path d="M7.974 15H16v2H7.974z" />
    </symbol>

    <symbol id="bx-sad" viewBox="0 0 24 24">
        <path d="M12 2C6.486 2 2 6.486 2 12s4.486 10 10 10 10-4.486 10-10S17.514 2 12 2zm0 18c-4.411 0-8-3.589-8-8s3.589-8 8-8 8 3.589 8 8-3.589 8-8 8z" />
        <circle cx="8.5" cy="10.5" r="1.5" />
        <circle cx="15.493" cy="10.493" r="1.493" />
        <path d="M12 14c-3 0-4 3-4 3h8s-1-3-4-3z" />
    </symbol>

    <symbol id="bx-shocked" viewBox="0 0 24 24">
        <path d="M12 2C6.486 2 2 6.486 2 12s4.486 10 10 10 10-4.486 10-10S17.514 2 12 2zm0 18c-4.411 0-8-3.589-8-8s3.589-8 8-8 8 3.589 8 8-3.589 8-8 8z" />
        <circle cx="8.5" cy="10.5" r="1.5" />
        <circle cx="15.493" cy="10.493" r="1.493" />
        <ellipse cx="12" cy="15.5" rx="3" ry="2.5" />
    </symbol>

    <symbol id="bx-happy-alt" viewBox="0 0 24 24">
        <path d="M12 2C6.486 2 2 6.486 2 12s4.486 10 10 10 10-4.486 10-10S17.514 2 12 2zm0 18c-4.411 0-8-3.589-8-8s3.589-8 8-8 8 3.589 8 8-3.589 8-8 8z" />
        <circle cx="8.5" cy="9.5" r="1.5" />
        <circle cx="15.493" cy="9.493" r="1.493" />
        <path d="M12 18c5 0 6-5 6-5H6s1 5 6 5z" />
    </symbol>

    <symbol id="bx-angry" viewBox="0 0 24 24">
        <path d="M12 2C6.486 2 2 6.486 2 12s4.486 10 10 10 10-4.486 10-10S17.514 2 12 2zm0 18c-4.411 0-8-3.589-8-8s3.589-8 8-8 8 3.589 8 8-3.589 8-8 8z" />
        <path d="M12 14c-3 0-4 3-4 3h8s-1-3-4-3zm-2.439-2.439c.014-.014.023-.03.037-.044l1.031.413.742-1.857-5-2-.742 1.856 1.373.549L7 10.5a1.499 1.499 0 0 0 2.561 1.061zm3.068-1.49.742 1.857 1.037-.415c.011.011.019.024.029.035a1.488 1.488 0 0 0 2.112 0c.271-.271.438-.644.438-1.056l-.001-.01 1.386-.554-.742-1.857-5.001 2z" />
    </symbol>

    <symbol id="bx-confused" viewBox="0 0 24 24">
        <path d="M12 2C6.486 2 2 6.486 2 12s4.486 10 10 10 10-4.486 10-10S17.514 2 12 2zm0 18c-4.411 0-8-3.589-8-8s3.589-8 8-8 8 3.589 8 8-3.589 8-8 8z" />
        <circle cx="8.5" cy="10.5" r="1.5" />
        <circle cx="15.493" cy="10.493" r="1.493" />
        <path d="m8.124 16.992-.248-1.984 8-1 .248 1.984z" />
    </symbol>

    <symbol id="bx-like" viewBox="0 0 24 24">
        <path d="M20 8h-5.612l1.123-3.367c.202-.608.1-1.282-.275-1.802S14.253 2 13.612 2H12c-.297 0-.578.132-.769.36L6.531 8H4c-1.103 0-2 .897-2 2v9c0 1.103.897 2 2 2h13.307a2.01 2.01 0 0 0 1.873-1.298l2.757-7.351A1 1 0 0 0 22 12v-2c0-1.103-.897-2-2-2zM4 10h2v9H4v-9zm16 1.819L17.307 19H8V9.362L12.468 4h1.146l-1.562 4.683A.998.998 0 0 0 13 10h7v1.819z" />
    </symbol>

    <symbol id="bx-donate-heart" viewBox="0 0 24 24">
        <path d="M4 21h9.62a3.995 3.995 0 0 0 3.037-1.397l5.102-5.952a1 1 0 0 0-.442-1.6l-1.968-.656a3.043 3.043 0 0 0-2.823.503l-3.185 2.547-.617-1.235A3.98 3.98 0 0 0 9.146 11H4c-1.103 0-2 .897-2 2v6c0 1.103.897 2 2 2zm0-8h5.146c.763 0 1.448.423 1.789 1.105l.447.895H7v2h6.014a.996.996 0 0 0 .442-.11l.003-.001.004-.002h.003l.002-.001h.004l.001-.001c.009.003.003-.001.003-.001.01 0 .002-.001.002-.001h.001l.002-.001.003-.001.002-.001.002-.001.003-.001.002-.001c.003 0 .001-.001.002-.001l.003-.002.002-.001.002-.001.003-.001.002-.001h.001l.002-.001h.001l.002-.001.002-.001c.009-.001.003-.001.003-.001l.002-.001a.915.915 0 0 0 .11-.078l4.146-3.317c.262-.208.623-.273.94-.167l.557.186-4.133 4.823a2.029 2.029 0 0 1-1.52.688H4v-6zM16 2h-.017c-.163.002-1.006.039-1.983.705-.951-.648-1.774-.7-1.968-.704L12.002 2h-.004c-.801 0-1.555.313-2.119.878C9.313 3.445 9 4.198 9 5s.313 1.555.861 2.104l3.414 3.586a1.006 1.006 0 0 0 1.45-.001l3.396-3.568C18.688 6.555 19 5.802 19 5s-.313-1.555-.878-2.121A2.978 2.978 0 0 0 16.002 2H16zm1 3c0 .267-.104.518-.311.725L14 8.55l-2.707-2.843C11.104 5.518 11 5.267 11 5s.104-.518.294-.708A.977.977 0 0 1 11.979 4c.025.001.502.032 1.067.485.081.065.163.139.247.222l.707.707.707-.707c.084-.083.166-.157.247-.222.529-.425.976-.478 1.052-.484a.987.987 0 0 1 .701.292c.189.189.293.44.293.707z" />
    </symbol>

    <symbol id="bx-help-circle" viewBox="0 0 24 24">
        <path d="M12 6a3.939 3.939 0 0 0-3.934 3.934h2C10.066 8.867 10.934 8 12 8s1.934.867 1.934 1.934c0 .598-.481 1.032-1.216 1.626a9.208 9.208 0 0 0-.691.599c-.998.997-1.027 2.056-1.027 2.174V15h2l-.001-.633c.001-.016.033-.386.441-.793.15-.15.339-.3.535-.458.779-.631 1.958-1.584 1.958-3.182A3.937 3.937 0 0 0 12 6zm-1 10h2v2h-2z" />
        <path d="M12 2C6.486 2 2 6.486 2 12s4.486 10 10 10 10-4.486 10-10S17.514 2 12 2zm0 18c-4.411 0-8-3.589-8-8s3.589-8 8-8 8 3.589 8 8-3.589 8-8 8z" />
    </symbol>

    <symbol id="bx-search-alt" viewBox="0 0 24 24">
        <path fill="currentColor" d="M10 18a7.952 7.952 0 0 0 4.897-1.688l4.396 4.396 1.414-1.414-4.396-4.396A7.952 7.952 0 0 0 18 10c0-4.411-3.589-8-8-8s-8 3.589-8 8 3.589 8 8 8zm0-14c3.309 0 6 2.691 6 6s-2.691 6-6 6-6-2.691-6-6 2.691-6 6-6z" />
        <path fill="currentColor" d="M11.412 8.586c.379.38.588.882.588 1.414h2a3.977 3.977 0 0 0-1.174-2.828c-1.514-1.512-4.139-1.512-5.652 0l1.412 1.416c.76-.758 2.07-.756 2.826-.002z" />
    </symbol>

    <symbol id="bxs-hot" viewBox="0 0 24 24">
        <path d="M16.5 8c0 1.5-.5 3.5-2.9 4.3.7-1.7.8-3.4.3-5-.7-2.1-3-3.7-4.6-4.6-.4-.3-1.1.1-1 .7 0 1.1-.3 2.7-2 4.4C4.1 10 3 12.3 3 14.5 3 17.4 5 21 9 21c-4-4-1-7.5-1-7.5.8 5.9 5 7.5 7 7.5 1.7 0 5-1.2 5-6.4 0-3.1-1.3-5.5-2.4-6.9-.3-.5-1-.2-1.1.3" />
    </symbol>

    <symbol id="bx-dislike" viewBox="0 0 24 24">
        <path d="M20 3H6.693A2.01 2.01 0 0 0 4.82 4.298l-2.757 7.351A1 1 0 0 0 2 12v2c0 1.103.897 2 2 2h5.612L8.49 19.367a2.004 2.004 0 0 0 .274 1.802c.376.52.982.831 1.624.831H12c.297 0 .578-.132.769-.36l4.7-5.64H20c1.103 0 2-.897 2-2V5c0-1.103-.897-2-2-2zm-8.469 17h-1.145l1.562-4.684A1 1 0 0 0 11 14H4v-1.819L6.693 5H16v9.638L11.531 20zM18 14V5h2l.001 9H18z" />
    </symbol>

    <symbol id="bx-bug" viewBox="0 0 24 24">
        <path d="m16.895 6.519 2.813-2.812-1.414-1.414-2.846 2.846a6.575 6.575 0 0 0-.723-.454 5.778 5.778 0 0 0-5.45 0c-.25.132-.488.287-.722.453L5.707 2.293 4.293 3.707l2.813 2.812A8.473 8.473 0 0 0 5.756 9H2v2h2.307c-.065.495-.107.997-.107 1.5 0 .507.042 1.013.107 1.511H2v2h2.753c.013.039.021.08.034.118.188.555.421 1.093.695 1.6.044.081.095.155.141.234l-2.33 2.33 1.414 1.414 2.11-2.111a7.477 7.477 0 0 0 2.068 1.619c.479.253.982.449 1.496.58a6.515 6.515 0 0 0 3.237.001 6.812 6.812 0 0 0 1.496-.58c.465-.246.914-.55 1.333-.904.258-.218.5-.462.734-.716l2.111 2.111 1.414-1.414-2.33-2.33c.047-.08.098-.155.142-.236.273-.505.507-1.043.694-1.599.013-.039.021-.079.034-.118H22v-2h-2.308c.065-.499.107-1.004.107-1.511 0-.503-.042-1.005-.106-1.5H22V9h-3.756a8.494 8.494 0 0 0-1.349-2.481zM8.681 7.748c.445-.558.96-.993 1.528-1.294a3.773 3.773 0 0 1 3.581 0 4.894 4.894 0 0 1 1.53 1.295c.299.373.54.8.753 1.251H7.927c.214-.451.454-.879.754-1.252zM17.8 12.5c0 .522-.042 1.044-.126 1.553-.079.49-.199.973-.355 1.436a8.28 8.28 0 0 1-.559 1.288 7.59 7.59 0 0 1-.733 1.11c-.267.333-.56.636-.869.898-.31.261-.639.484-.979.664s-.695.317-1.057.41c-.04.01-.082.014-.122.023V14h-2v5.881c-.04-.009-.082-.013-.122-.023-.361-.093-.717-.23-1.057-.41s-.669-.403-.978-.664a6.462 6.462 0 0 1-.871-.899 7.402 7.402 0 0 1-.731-1.108 8.337 8.337 0 0 1-.56-1.289 9.075 9.075 0 0 1-.356-1.438A9.61 9.61 0 0 1 6.319 11H17.68c.079.491.12.995.12 1.5z" />
    </symbol>

    <symbol id="bx-happy-heart-eyes" viewBox="0 0 24 24">
        <path d="M12 18c4 0 5-4 5-4H7s1 4 5 4z" />
        <path d="M12 22c5.514 0 10-4.486 10-10S17.514 2 12 2 2 6.486 2 12s4.486 10 10 10zm0-18c4.411 0 8 3.589 8 8s-3.589 8-8 8-8-3.589-8-8 3.589-8 8-8z" />
        <path d="m8.535 12.634 2.05-2.083a1.485 1.485 0 0 0-.018-2.118 1.49 1.49 0 0 0-2.065-.034 1.488 1.488 0 0 0-2.067.068c-.586.6-.579 1.53.019 2.117l2.081 2.05zm7 0 2.05-2.083a1.485 1.485 0 0 0-.018-2.118 1.49 1.49 0 0 0-2.065-.034 1.488 1.488 0 0 0-2.068.067c-.586.6-.579 1.53.019 2.117l2.082 2.051z" />
    </symbol>

    <symbol id="bx-alarm-exclamation" viewBox="0 0 24 24">
        <path d="M12 22c4.879 0 9-4.121 9-9s-4.121-9-9-9-9 4.121-9 9 4.121 9 9 9zm0-16c3.794 0 7 3.206 7 7s-3.206 7-7 7-7-3.206-7-7 3.206-7 7-7zm5.284-2.293 1.412-1.416 3.01 3-1.413 1.417zM5.282 2.294 6.7 3.706l-2.99 3-1.417-1.413z" />
        <path d="M11 9h2v5h-2zm0 6h2v2h-2z" />
    </symbol>

    <symbol id="bx-happy-beaming" viewBox="0 0 24 24">
        <path d="M12 18c4 0 5-4 5-4H7s1 4 5 4z" />
        <path d="M12 2C6.486 2 2 6.486 2 12s4.486 10 10 10 10-4.486 10-10S17.514 2 12 2zm0 18c-4.411 0-8-3.589-8-8s3.589-8 8-8 8 3.589 8 8-3.589 8-8 8z" />
        <path d="m13 12 2 .012c.012-.462.194-1.012 1-1.012s.988.55 1 1h2c0-1.206-.799-3-3-3s-3 1.794-3 3zm-5-1c.806 0 .988.55 1 1h2c0-1.206-.799-3-3-3s-3 1.794-3 3l2 .012C7.012 11.55 7.194 11 8 11z" />
    </symbol>

    <symbol id="bx-dizzy" viewBox="0 0 24 24">
        <path d="M12 2C6.486 2 2 6.486 2 12s4.486 10 10 10 10-4.486 10-10S17.514 2 12 2zm0 18c-4.411 0-8-3.589-8-8s3.589-8 8-8 8 3.589 8 8-3.589 8-8 8z" />
        <path d="M10.707 12.293 9.414 11l1.293-1.293-1.414-1.414L8 9.586 6.707 8.293 5.293 9.707 6.586 11l-1.293 1.293 1.414 1.414L8 12.414l1.293 1.293zm6.586-4L16 9.586l-1.293-1.293-1.414 1.414L14.586 11l-1.293 1.293 1.414 1.414L16 12.414l1.293 1.293 1.414-1.414L17.414 11l1.293-1.293zM10 16h4v2h-4z" />
    </symbol>

    <symbol id="bx-sleepy" viewBox="0 0 24 24">
        <path d="M12 2C6.486 2 2 6.486 2 12s4.486 10 10 10 10-4.486 10-10S17.514 2 12 2zm0 18c-4.411 0-8-3.589-8-8s3.589-8 8-8 8 3.589 8 8-3.589 8-8 8z" />
        <ellipse cx="12" cy="15.5" rx="3" ry="2.5" />
        <path d="M10 7c-2.905 0-3.983 2.386-4 3.99l2 .021C8.002 10.804 8.076 9 10 9V7zm4 0v2c1.826 0 1.992 1.537 2 2.007L17 11h1c0-1.608-1.065-4-4-4z" />
    </symbol>

    <symbol id="bx-tired" viewBox="0 0 24 24">
        <path d="M12 14c-3 0-4 3-4 3h8s-1-3-4-3z" />
        <path d="M12 2C6.486 2 2 6.486 2 12s4.486 10 10 10 10-4.486 10-10S17.514 2 12 2zm0 18c-4.411 0-8-3.589-8-8s3.589-8 8-8 8 3.589 8 8-3.589 8-8 8z" />
        <path d="m17.555 8.832-1.109-1.664-3 2a1.001 1.001 0 0 0 .108 1.727l4 2 .895-1.789-2.459-1.229 1.565-1.045zm-6.557 1.23a1 1 0 0 0-.443-.894l-3-2-1.11 1.664 1.566 1.044-2.459 1.229.895 1.789 4-2a.998.998 0 0 0 .551-.832z" />
    </symbol>

    <symbol id="bx-check-circle" viewBox="0 0 24 24">
        <path fill="currentColor" d="M12 2C6.486 2 2 6.486 2 12s4.486 10 10 10 10-4.486 10-10S17.514 2 12 2zm0 18c-4.411 0-8-3.589-8-8s3.589-8 8-8 8 3.589 8 8-3.589 8-8 8z" />
        <path fill="currentColor" d="M9.999 13.587 7.7 11.292l-1.412 1.416 3.713 3.705 6.706-6.706-1.414-1.414z" />
    </symbol>

    <symbol id="bx-x-circle" viewBox="0 0 24 24">
        <path fill="currentColor" d="M9.172 16.242 12 13.414l2.828 2.828 1.414-1.414L13.414 12l2.828-2.828-1.414-1.414L12 10.586 9.172 7.758 7.758 9.172 10.586 12l-2.828 2.828z" />
        <path fill="currentColor" d="M12 22c5.514 0 10-4.486 10-10S17.514 2 12 2 2 6.486 2 12s4.486 10 10 10zm0-18c4.411 0 8 3.589 8 8s-3.589 8-8 8-8-3.589-8-8 3.589-8 8-8z" />
    </symbol>

    <symbol id="bx-error-alt" viewBox="0 0 24 24">
        <path fill="none" d="M0 0h24v24H0z"/>
        <path d="M11 7h2v7h-2zm0 8h2v2h-2z"/>
        <path d="m21.707 7.293-5-5A.996.996 0 0 0 16 2H8a.996.996 0 0 0-.707.293l-5 5A.996.996 0 0 0 2 8v8c0 .266.105.52.293.707l5 5A.996.996 0 0 0 8 22h8c.266 0 .52-.105.707-.293l5-5A.996.996 0 0 0 22 16V8a.996.996 0 0 0-.293-.707zM20 15.586 15.586 20H8.414L4 15.586V8.414L8.414 4h7.172L20 8.414v7.172z"/>
    </symbol>
</svg>